<mxfile host="app.diagrams.net" modified="2023-12-10T10:25:24.100Z" agent="Mozilla/5.0 (Macintosh; Intel Mac OS X 10_15_7) AppleWebKit/537.36 (KHTML, like Gecko) Chrome/119.0.0.0 Safari/537.36" etag="Eumrp3rSt6mzLYOfZJFq" version="22.1.7" type="device">
  <diagram name="arch" id="9HMnmeB9WhVcvfuiyfoF">
    <mxGraphModel dx="956" dy="527" grid="1" gridSize="10" guides="1" tooltips="1" connect="1" arrows="1" fold="1" page="1" pageScale="1" pageWidth="827" pageHeight="1169" math="0" shadow="0">
      <root>
        <mxCell id="0" />
        <mxCell id="1" parent="0" />
        <mxCell id="GXDX8FVF6B_m3XHVoOnM-18" value="" style="group;fillColor=#f8cecc;strokeColor=#b85450;" parent="1" vertex="1" connectable="0">
          <mxGeometry x="30" y="260" width="320" height="330" as="geometry" />
        </mxCell>
        <mxCell id="O7poqQPwFZiRwluWmVQs-13" style="edgeStyle=orthogonalEdgeStyle;rounded=0;orthogonalLoop=1;jettySize=auto;html=1;entryX=0.25;entryY=0;entryDx=0;entryDy=0;" edge="1" parent="GXDX8FVF6B_m3XHVoOnM-18" source="GXDX8FVF6B_m3XHVoOnM-9" target="GXDX8FVF6B_m3XHVoOnM-10">
          <mxGeometry relative="1" as="geometry">
            <Array as="points">
              <mxPoint x="85" y="200" />
              <mxPoint x="183" y="200" />
            </Array>
          </mxGeometry>
        </mxCell>
        <mxCell id="GXDX8FVF6B_m3XHVoOnM-9" value="CommentList&lt;br&gt;Widget" style="rounded=0;whiteSpace=wrap;html=1;" parent="GXDX8FVF6B_m3XHVoOnM-18" vertex="1">
          <mxGeometry x="27.425714285714278" y="120" width="109.71428571428571" height="60" as="geometry" />
        </mxCell>
        <mxCell id="GXDX8FVF6B_m3XHVoOnM-10" value="CommenItem&lt;br&gt;Widget" style="rounded=0;whiteSpace=wrap;html=1;" parent="GXDX8FVF6B_m3XHVoOnM-18" vertex="1">
          <mxGeometry x="155.42857142857142" y="230" width="109.71428571428571" height="60" as="geometry" />
        </mxCell>
        <mxCell id="O7poqQPwFZiRwluWmVQs-14" style="edgeStyle=orthogonalEdgeStyle;rounded=0;orthogonalLoop=1;jettySize=auto;html=1;entryX=0.75;entryY=0;entryDx=0;entryDy=0;" edge="1" parent="GXDX8FVF6B_m3XHVoOnM-18" source="GXDX8FVF6B_m3XHVoOnM-12" target="O7poqQPwFZiRwluWmVQs-10">
          <mxGeometry relative="1" as="geometry" />
        </mxCell>
        <mxCell id="GXDX8FVF6B_m3XHVoOnM-12" value="App" style="rounded=0;whiteSpace=wrap;html=1;" parent="GXDX8FVF6B_m3XHVoOnM-18" vertex="1">
          <mxGeometry x="82.28571428571428" y="20" width="109.71428571428571" height="60" as="geometry" />
        </mxCell>
        <mxCell id="GXDX8FVF6B_m3XHVoOnM-13" style="edgeStyle=orthogonalEdgeStyle;rounded=0;orthogonalLoop=1;jettySize=auto;html=1;" parent="GXDX8FVF6B_m3XHVoOnM-18" source="GXDX8FVF6B_m3XHVoOnM-12" target="GXDX8FVF6B_m3XHVoOnM-9" edge="1">
          <mxGeometry relative="1" as="geometry" />
        </mxCell>
        <mxCell id="O7poqQPwFZiRwluWmVQs-10" value="CommentsForm&lt;br&gt;Widget" style="rounded=0;whiteSpace=wrap;html=1;" vertex="1" parent="GXDX8FVF6B_m3XHVoOnM-18">
          <mxGeometry x="179.99571428571429" y="120" width="109.71428571428571" height="60" as="geometry" />
        </mxCell>
        <mxCell id="GXDX8FVF6B_m3XHVoOnM-4" style="edgeStyle=orthogonalEdgeStyle;rounded=0;orthogonalLoop=1;jettySize=auto;html=1;dashed=1;dashPattern=1 2;fillColor=#e1d5e7;strokeColor=#9673a6;" parent="1" source="GXDX8FVF6B_m3XHVoOnM-1" target="GXDX8FVF6B_m3XHVoOnM-2" edge="1">
          <mxGeometry relative="1" as="geometry" />
        </mxCell>
        <mxCell id="GXDX8FVF6B_m3XHVoOnM-5" style="edgeStyle=orthogonalEdgeStyle;rounded=0;orthogonalLoop=1;jettySize=auto;html=1;entryX=1;entryY=0.5;entryDx=0;entryDy=0;dashed=1;dashPattern=1 2;fillColor=#e1d5e7;strokeColor=#9673a6;" parent="1" source="GXDX8FVF6B_m3XHVoOnM-1" target="GXDX8FVF6B_m3XHVoOnM-3" edge="1">
          <mxGeometry relative="1" as="geometry" />
        </mxCell>
        <mxCell id="GXDX8FVF6B_m3XHVoOnM-1" value="Comments Provider" style="rounded=0;whiteSpace=wrap;html=1;fillColor=#e1d5e7;strokeColor=#9673a6;" parent="1" vertex="1">
          <mxGeometry x="350" y="30" width="120" height="60" as="geometry" />
        </mxCell>
        <mxCell id="GXDX8FVF6B_m3XHVoOnM-2" value="Comments API&lt;br&gt;Provider" style="rounded=0;whiteSpace=wrap;html=1;fillColor=#e1d5e7;strokeColor=#9673a6;" parent="1" vertex="1">
          <mxGeometry x="30" y="30" width="120" height="60" as="geometry" />
        </mxCell>
        <mxCell id="GXDX8FVF6B_m3XHVoOnM-3" value="Local Provider" style="rounded=0;whiteSpace=wrap;html=1;fillColor=#e1d5e7;strokeColor=#9673a6;" parent="1" vertex="1">
          <mxGeometry x="30" y="100" width="120" height="60" as="geometry" />
        </mxCell>
        <mxCell id="GXDX8FVF6B_m3XHVoOnM-8" style="edgeStyle=orthogonalEdgeStyle;rounded=0;orthogonalLoop=1;jettySize=auto;html=1;entryX=0.5;entryY=1;entryDx=0;entryDy=0;fillColor=#e1d5e7;strokeColor=#9673a6;" parent="1" source="GXDX8FVF6B_m3XHVoOnM-6" target="GXDX8FVF6B_m3XHVoOnM-1" edge="1">
          <mxGeometry relative="1" as="geometry" />
        </mxCell>
        <mxCell id="GXDX8FVF6B_m3XHVoOnM-6" value="Comments Repository" style="rounded=0;whiteSpace=wrap;html=1;fillColor=#e1d5e7;strokeColor=#9673a6;" parent="1" vertex="1">
          <mxGeometry x="350" y="150" width="120" height="60" as="geometry" />
        </mxCell>
        <mxCell id="GXDX8FVF6B_m3XHVoOnM-25" style="edgeStyle=orthogonalEdgeStyle;rounded=0;orthogonalLoop=1;jettySize=auto;html=1;entryX=1;entryY=0.25;entryDx=0;entryDy=0;" parent="1" source="GXDX8FVF6B_m3XHVoOnM-19" target="GXDX8FVF6B_m3XHVoOnM-6" edge="1">
          <mxGeometry relative="1" as="geometry">
            <Array as="points">
              <mxPoint x="650" y="165" />
            </Array>
          </mxGeometry>
        </mxCell>
        <mxCell id="O7poqQPwFZiRwluWmVQs-23" style="edgeStyle=orthogonalEdgeStyle;rounded=0;orthogonalLoop=1;jettySize=auto;html=1;entryX=0.5;entryY=0;entryDx=0;entryDy=0;dashed=1;" edge="1" parent="1" source="GXDX8FVF6B_m3XHVoOnM-19" target="GXDX8FVF6B_m3XHVoOnM-26">
          <mxGeometry relative="1" as="geometry" />
        </mxCell>
        <mxCell id="GXDX8FVF6B_m3XHVoOnM-19" value="CommentsBloc" style="rounded=0;whiteSpace=wrap;html=1;fillColor=#d5e8d4;strokeColor=#82b366;" parent="1" vertex="1">
          <mxGeometry x="590" y="280" width="120" height="60" as="geometry" />
        </mxCell>
        <mxCell id="O7poqQPwFZiRwluWmVQs-4" value="" style="group;strokeColor=#6c8ebf;dashed=1;perimeterSpacing=1;fillColor=none;" vertex="1" connectable="0" parent="1">
          <mxGeometry x="390" y="400" width="370" height="120" as="geometry" />
        </mxCell>
        <mxCell id="GXDX8FVF6B_m3XHVoOnM-29" value="" style="group;strokeColor=default;dashed=1;perimeterSpacing=8;fillColor=default;" parent="O7poqQPwFZiRwluWmVQs-4" vertex="1" connectable="0">
          <mxGeometry x="117.5" width="130" height="50" as="geometry" />
        </mxCell>
        <mxCell id="GXDX8FVF6B_m3XHVoOnM-30" style="edgeStyle=orthogonalEdgeStyle;rounded=0;orthogonalLoop=1;jettySize=auto;html=1;entryX=0;entryY=0.5;entryDx=0;entryDy=0;" parent="GXDX8FVF6B_m3XHVoOnM-29" edge="1">
          <mxGeometry relative="1" as="geometry" />
        </mxCell>
        <mxCell id="GXDX8FVF6B_m3XHVoOnM-26" value="CommentsBloc&lt;br&gt;Event" style="rounded=1;whiteSpace=wrap;html=1;fillColor=#ffe6cc;strokeColor=#d79b00;dashed=1;perimeterSpacing=8;" parent="GXDX8FVF6B_m3XHVoOnM-29" vertex="1">
          <mxGeometry width="130" height="50" as="geometry" />
        </mxCell>
        <mxCell id="GXDX8FVF6B_m3XHVoOnM-31" value="PostComment&lt;br&gt;Event" style="rounded=1;whiteSpace=wrap;html=1;fillColor=#ffe6cc;strokeColor=#d79b00;dashed=1;perimeterSpacing=8;" parent="O7poqQPwFZiRwluWmVQs-4" vertex="1">
          <mxGeometry x="135" y="70" width="95" height="50" as="geometry" />
        </mxCell>
        <mxCell id="GXDX8FVF6B_m3XHVoOnM-33" value="fetchComments&lt;br&gt;Event" style="rounded=1;whiteSpace=wrap;html=1;fillColor=#ffe6cc;strokeColor=#d79b00;dashed=1;perimeterSpacing=8;" parent="O7poqQPwFZiRwluWmVQs-4" vertex="1">
          <mxGeometry y="70" width="110" height="50" as="geometry" />
        </mxCell>
        <mxCell id="O7poqQPwFZiRwluWmVQs-3" value="fetchChildComments Event" style="rounded=1;whiteSpace=wrap;html=1;fillColor=#ffe6cc;strokeColor=#d79b00;dashed=1;perimeterSpacing=8;" vertex="1" parent="O7poqQPwFZiRwluWmVQs-4">
          <mxGeometry x="250" y="70" width="120" height="50" as="geometry" />
        </mxCell>
        <mxCell id="O7poqQPwFZiRwluWmVQs-8" value="Events" style="text;html=1;strokeColor=none;fillColor=none;align=center;verticalAlign=middle;whiteSpace=wrap;rounded=0;" vertex="1" parent="O7poqQPwFZiRwluWmVQs-4">
          <mxGeometry width="60" height="30" as="geometry" />
        </mxCell>
        <mxCell id="O7poqQPwFZiRwluWmVQs-1" style="edgeStyle=orthogonalEdgeStyle;rounded=0;orthogonalLoop=1;jettySize=auto;html=1;" edge="1" parent="1" source="GXDX8FVF6B_m3XHVoOnM-12" target="GXDX8FVF6B_m3XHVoOnM-19">
          <mxGeometry relative="1" as="geometry" />
        </mxCell>
        <mxCell id="O7poqQPwFZiRwluWmVQs-9" value="DI container" style="text;html=1;strokeColor=none;fillColor=none;align=center;verticalAlign=middle;whiteSpace=wrap;rounded=0;" vertex="1" parent="1">
          <mxGeometry x="600" y="130" width="60" height="30" as="geometry" />
        </mxCell>
        <mxCell id="O7poqQPwFZiRwluWmVQs-17" value="" style="endArrow=none;dashed=1;html=1;rounded=0;" edge="1" parent="1">
          <mxGeometry width="50" height="50" relative="1" as="geometry">
            <mxPoint x="9" y="230" as="sourcePoint" />
            <mxPoint x="819" y="230" as="targetPoint" />
          </mxGeometry>
        </mxCell>
        <mxCell id="O7poqQPwFZiRwluWmVQs-18" value="Application" style="text;html=1;strokeColor=none;fillColor=none;align=center;verticalAlign=middle;whiteSpace=wrap;rounded=0;" vertex="1" parent="1">
          <mxGeometry x="760" y="230" width="60" height="30" as="geometry" />
        </mxCell>
        <mxCell id="O7poqQPwFZiRwluWmVQs-19" value="" style="endArrow=none;dashed=1;html=1;rounded=0;" edge="1" parent="1">
          <mxGeometry width="50" height="50" relative="1" as="geometry">
            <mxPoint x="270" y="110" as="sourcePoint" />
            <mxPoint x="810" y="110" as="targetPoint" />
          </mxGeometry>
        </mxCell>
        <mxCell id="O7poqQPwFZiRwluWmVQs-20" value="Domain" style="text;html=1;strokeColor=none;fillColor=none;align=center;verticalAlign=middle;whiteSpace=wrap;rounded=0;" vertex="1" parent="1">
          <mxGeometry x="760" y="200" width="60" height="30" as="geometry" />
        </mxCell>
        <mxCell id="O7poqQPwFZiRwluWmVQs-21" value="Data" style="text;html=1;strokeColor=none;fillColor=none;align=center;verticalAlign=middle;whiteSpace=wrap;rounded=0;" vertex="1" parent="1">
          <mxGeometry x="760" y="80" width="60" height="30" as="geometry" />
        </mxCell>
      </root>
    </mxGraphModel>
  </diagram>
</mxfile>
